<svg xmlns="http://www.w3.org/2000/svg" viewBox="0 0 1440 320"><path fill="#0d1117" fill-opacity="1" d="M0,64L16,101.3C32,139,64,213,96,213.3C128,213,160,139,192,117.3C224,96,256,128,288,133.3C320,139,352,117,384,106.7C416,96,448,96,480,128C512,160,544,224,576,240C608,256,640,224,672,181.3C704,139,736,85,768,80C800,75,832,117,864,149.3C896,181,928,203,960,208C992,213,1024,203,1056,208C1088,213,1120,235,1152,234.7C1184,235,1216,213,1248,170.7C1280,128,1312,64,1344,80C1376,96,1408,192,1424,240L1440,288L1440,320L1424,320C1408,320,1376,320,1344,320C1312,320,1280,320,1248,320C1216,320,1184,320,1152,320C1120,320,1088,320,1056,320C1024,320,992,320,960,320C928,320,896,320,864,320C832,320,800,320,768,320C736,320,704,320,672,320C640,320,608,320,576,320C544,320,512,320,480,320C448,320,416,320,384,320C352,320,320,320,288,320C256,320,224,320,192,320C160,320,128,320,96,320C64,320,32,320,16,320L0,320Z"></path></svg>